<?xml version="1.0" encoding="UTF-8" standalone="no"?>
<!-- Generator: Adobe Illustrator 19.0.0, SVG Export Plug-In . SVG Version: 6.00 Build 0)  -->

<svg
   version="1.1"
   id="Layer_1"
   x="0px"
   y="0px"
   viewBox="0 0 575 512"
   style="enable-background:new 0 0 512 512;"
   xml:space="preserve"
   sodipodi:docname="metamorfose14-logo.svg"
   inkscape:version="1.2 (1:1.2+202206011326+fc4e4096c5)"
   xmlns:inkscape="http://www.inkscape.org/namespaces/inkscape"
   xmlns:sodipodi="http://sodipodi.sourceforge.net/DTD/sodipodi-0.dtd"
   xmlns:xlink="http://www.w3.org/1999/xlink"
   xmlns="http://www.w3.org/2000/svg"
   xmlns:svg="http://www.w3.org/2000/svg"><defs
   id="defs228"><linearGradient
     inkscape:collect="always"
     id="linearGradient1421"><stop
       style="stop-color:#15161c;stop-opacity:1;"
       offset="0"
       id="stop1417" /><stop
       style="stop-color:#282a36;stop-opacity:1;"
       offset="1"
       id="stop1419" /></linearGradient><linearGradient
     inkscape:collect="always"
     id="linearGradient1407"><stop
       style="stop-color:#15161c;stop-opacity:1;"
       offset="0"
       id="stop1403" /><stop
       style="stop-color:#282a36;stop-opacity:1;"
       offset="1"
       id="stop1405" /></linearGradient><linearGradient
     inkscape:collect="always"
     id="linearGradient1391"><stop
       style="stop-color:#15161c;stop-opacity:1;"
       offset="0"
       id="stop1387" /><stop
       style="stop-color:#282a36;stop-opacity:1;"
       offset="1"
       id="stop1389" /></linearGradient><linearGradient
     inkscape:collect="always"
     id="linearGradient1305"><stop
       style="stop-color:#906ef2;stop-opacity:1;"
       offset="0"
       id="stop1301" /><stop
       style="stop-color:#90a4f2;stop-opacity:1;"
       offset="1"
       id="stop1303" /></linearGradient><linearGradient
     inkscape:collect="always"
     id="linearGradient1253"><stop
       style="stop-color:#90a4f2;stop-opacity:0.944592;"
       offset="0"
       id="stop1249" /><stop
       style="stop-color:#90fff2;stop-opacity:0.62340385;"
       offset="1"
       id="stop1251" /></linearGradient><linearGradient
     inkscape:collect="always"
     id="linearGradient1219"><stop
       style="stop-color:#009ea1;stop-opacity:0.3721188;"
       offset="0"
       id="stop1215" /><stop
       style="stop-color:#0068a1;stop-opacity:1;"
       offset="1"
       id="stop1217" /></linearGradient><linearGradient
     inkscape:collect="always"
     id="linearGradient1206"><stop
       style="stop-color:#ffa8cd;stop-opacity:1;"
       offset="0"
       id="stop1202" /><stop
       style="stop-color:#0b7bcd;stop-opacity:1;"
       offset="1"
       id="stop1204" /></linearGradient><linearGradient
     inkscape:collect="always"
     id="linearGradient22572"><stop
       style="stop-color:#0bd7cd;stop-opacity:1;"
       offset="0"
       id="stop22568" /><stop
       style="stop-color:#0b9ccd;stop-opacity:1;"
       offset="0.59346205"
       id="stop22570" /><stop
       style="stop-color:#0b49cd;stop-opacity:1;"
       offset="0.9956882"
       id="stop23303" /></linearGradient><linearGradient
     inkscape:collect="always"
     id="linearGradient22556"><stop
       style="stop-color:#869cf1;stop-opacity:1;"
       offset="0"
       id="stop22552" /><stop
       style="stop-color:#ffffff;stop-opacity:1;"
       offset="1"
       id="stop22554" /></linearGradient><linearGradient
     inkscape:collect="always"
     id="linearGradient12364"><stop
       style="stop-color:#15161c;stop-opacity:1;"
       offset="0"
       id="stop12360" /><stop
       style="stop-color:#282a36;stop-opacity:1;"
       offset="1"
       id="stop12362" /></linearGradient><linearGradient
     inkscape:collect="always"
     xlink:href="#linearGradient1407"
     id="linearGradient8005"
     x1="334.76534"
     y1="259.6726"
     x2="572.91415"
     y2="259.6726"
     gradientUnits="userSpaceOnUse" /><linearGradient
     inkscape:collect="always"
     xlink:href="#linearGradient22556"
     id="linearGradient22558"
     x1="346.05125"
     y1="207.01452"
     x2="502.52817"
     y2="207.01452"
     gradientUnits="userSpaceOnUse" /><linearGradient
     inkscape:collect="always"
     xlink:href="#linearGradient22572"
     id="linearGradient22574"
     x1="344.6815"
     y1="173.58419"
     x2="542.58261"
     y2="173.58419"
     gradientUnits="userSpaceOnUse" /><linearGradient
     inkscape:collect="always"
     xlink:href="#linearGradient12364"
     id="linearGradient1079"
     gradientUnits="userSpaceOnUse"
     x1="334.76534"
     y1="259.6726"
     x2="572.91415"
     y2="259.6726" /><linearGradient
     inkscape:collect="always"
     xlink:href="#linearGradient1206"
     id="linearGradient1208"
     x1="335.76917"
     y1="351.73831"
     x2="492.88547"
     y2="351.73831"
     gradientUnits="userSpaceOnUse"
     spreadMethod="pad" /><linearGradient
     inkscape:collect="always"
     xlink:href="#linearGradient1219"
     id="linearGradient1221"
     x1="367.88886"
     y1="351.18126"
     x2="488.61228"
     y2="351.18126"
     gradientUnits="userSpaceOnUse" /><linearGradient
     inkscape:collect="always"
     xlink:href="#linearGradient1253"
     id="linearGradient1257"
     x1="334.79764"
     y1="313.45566"
     x2="450.08356"
     y2="313.45566"
     gradientUnits="userSpaceOnUse" /><linearGradient
     inkscape:collect="always"
     xlink:href="#linearGradient22572"
     id="linearGradient1289"
     gradientUnits="userSpaceOnUse"
     x1="344.6815"
     y1="173.58419"
     x2="542.58261"
     y2="173.58419" /><linearGradient
     inkscape:collect="always"
     xlink:href="#linearGradient22556"
     id="linearGradient1291"
     gradientUnits="userSpaceOnUse"
     x1="346.05125"
     y1="207.01452"
     x2="502.52817"
     y2="207.01452" /><linearGradient
     inkscape:collect="always"
     xlink:href="#linearGradient1206"
     id="linearGradient1293"
     gradientUnits="userSpaceOnUse"
     x1="335.76917"
     y1="351.73831"
     x2="492.88547"
     y2="351.73831"
     spreadMethod="pad" /><linearGradient
     inkscape:collect="always"
     xlink:href="#linearGradient1253"
     id="linearGradient1295"
     gradientUnits="userSpaceOnUse"
     x1="334.79764"
     y1="313.45566"
     x2="450.08356"
     y2="313.45566" /><linearGradient
     inkscape:collect="always"
     xlink:href="#linearGradient1219"
     id="linearGradient1297"
     gradientUnits="userSpaceOnUse"
     x1="367.88886"
     y1="351.18126"
     x2="488.61228"
     y2="351.18126" /><linearGradient
     inkscape:collect="always"
     xlink:href="#linearGradient1305"
     id="linearGradient1307"
     x1="338.3407"
     y1="349.70093"
     x2="434.15317"
     y2="349.70093"
     gradientUnits="userSpaceOnUse" /><linearGradient
     inkscape:collect="always"
     xlink:href="#linearGradient1305"
     id="linearGradient1311"
     gradientUnits="userSpaceOnUse"
     x1="338.3407"
     y1="349.70093"
     x2="434.15317"
     y2="349.70093"
     gradientTransform="matrix(-1,0,0,1,574.39417,0)" /><linearGradient
     inkscape:collect="always"
     xlink:href="#linearGradient1391"
     id="linearGradient1393"
     x1="444.79785"
     y1="396.17301"
     x2="509.63423"
     y2="396.17301"
     gradientUnits="userSpaceOnUse" /><linearGradient
     inkscape:collect="always"
     xlink:href="#linearGradient1421"
     id="linearGradient1423"
     x1="444.79785"
     y1="396.17301"
     x2="509.63423"
     y2="396.17301"
     gradientUnits="userSpaceOnUse" /></defs><sodipodi:namedview
   id="namedview226"
   pagecolor="#505050"
   bordercolor="#eeeeee"
   borderopacity="1"
   inkscape:showpageshadow="0"
   inkscape:pageopacity="0"
   inkscape:pagecheckerboard="0"
   inkscape:deskcolor="#505050"
   showgrid="false"
   inkscape:zoom="1.3037281"
   inkscape:cx="283.03448"
   inkscape:cy="268.8444"
   inkscape:window-width="1600"
   inkscape:window-height="966"
   inkscape:window-x="0"
   inkscape:window-y="28"
   inkscape:window-maximized="1"
   inkscape:current-layer="Layer_1" />




























<g
   id="g889"
   inkscape:label="asaDCima"
   style="display:inline"><path
     style="fill:url(#linearGradient22574);fill-opacity:1;stroke:#000000;stroke-width:1px;stroke-linecap:butt;stroke-linejoin:miter;stroke-opacity:0"
     d="m 540.88376,92.232316 -40.16723,-6.681378 -46.79492,13.50149 -39.98772,30.155502 -29.46967,30.60801 -21.33693,33.61337 -17.94024,32.79985 1.40825,32.56857 31.83105,2.8289 61.45139,-7.28467 51.40221,-6.98026 c 0,0 23.91054,-30.6999 24.65517,-32.57265 0.74463,-1.87276 3.13528,-35.71192 3.13528,-35.71192 L 527.33134,129.6837 542.026,94.198325 Z"
     id="path22566"
     inkscape:label="c5" /><path
     style="fill:url(#linearGradient22558);fill-opacity:1;stroke:#000000;stroke-width:1px;stroke-linecap:butt;stroke-linejoin:miter;stroke-opacity:0"
     d="m 449.22832,240.56595 c 0,0 -57.71223,-34.29166 0.51126,-55.38546 5.94062,-2.50771 23.10023,2.5743 52.224,-20.64406 1.91716,-2.40274 -37.8651,19.84487 -42.72045,11.70106 -4.85535,-8.14382 6.41132,-22.00259 8.3922,-24.19695 1.98088,-2.19436 -21.0711,-1.92318 -21.0711,-1.92318 l -44.1346,19.10853 -50.68683,41.81764 -5.16233,33.35418 16.66424,19.50258 69.85186,-6.55998 z"
     id="path22550"
     inkscape:label="c3" /><path
     style="fill:#1c9bd3;fill-opacity:1;stroke:#000000;stroke-width:1px;stroke-linecap:butt;stroke-linejoin:miter;stroke-opacity:0"
     d="m 349.60675,241.42987 c 0,0 35.38485,-55.39845 99.86898,-65.43175 18.53666,-2.43065 53.05189,-53.51529 42.56748,-80.853459 -6.17726,-12.184694 -69.09657,29.451329 -79.74515,39.050809 -10.64857,9.59947 -58.30675,60.62783 -58.30675,60.62783 l -9.12242,31.11473 z"
     id="path22536"
     inkscape:label="c1" /><path
     style="fill:#0068a1;fill-opacity:1;stroke:#000000;stroke-width:1px;stroke-linecap:butt;stroke-linejoin:miter;stroke-opacity:0"
     d="m 366.8076,253.19786 c 0,0 11.03142,-28.99255 49.10408,-37.95091 5.38923,-0.69875 -21.87503,-9.35598 -62.79804,29.29603 -3.68825,2.82114 -3.06707,-14.80194 -3.06707,-14.80194 l 4.78685,-17.68542 23.44885,-38.77592 14.0836,-16.05447 c 0,0 65.30499,-28.48277 97.30525,27.73949 7.83655,15.66479 7.07722,-46.78481 -81.19583,-48.7895 -10.61383,2.13556 -32.92144,27.69629 -32.92144,27.69629 l -21.20097,37.14173 -10.86078,32.21966 1.55845,22.95412 22.02756,1.73306 z"
     id="path22562"
     inkscape:label="c4" /><path
     style="fill:#0068a1;fill-opacity:1;stroke:#0068a1;stroke-width:1px;stroke-linecap:butt;stroke-linejoin:miter;stroke-opacity:0.019207"
     d="m 350.82713,250.31011 c 0,0 66.43483,6.18686 96.12036,-40.7209 7.11338,-13.21209 25.61517,-42.06466 21.26427,35.2753 -3.58387,14.16981 -24.53778,9.02765 -24.53778,9.02765 l -47.31566,6.15987 -24.11097,2.58533 -25.39331,-8.08121 z"
     id="path22547"
     inkscape:label="c2" /><path
     style="display:inline;fill:url(#linearGradient1307);fill-opacity:1;stroke:#000000;stroke-width:1px;stroke-linecap:butt;stroke-linejoin:miter;stroke-opacity:0"
     d="m 338.85227,279.04172 c 0,0 7.75218,66.44298 3.38104,87.99318 -1.67734,12.71685 -11.92559,39.97183 16.35222,48.98098 7.34983,1.77935 16.08425,8.63889 30.95953,27.15167 3.66213,4.27865 35.2655,-2.21379 35.2655,-2.21379 0,0 9.35639,-95.73316 8.82041,-97.25832 -0.53599,-1.52517 -36.49673,-64.34373 -36.49673,-64.34373 l -46.29604,-24.40346 -8.79072,16.2859 z"
     id="path1299" /><path
     style="display:inline;fill:url(#linearGradient1208);fill-opacity:1;stroke:#000000;stroke-width:1px;stroke-linecap:butt;stroke-linejoin:miter;stroke-opacity:0"
     d="m 336.72167,241.29717 c 0,0 -5.96493,60.01338 25.95327,91.7204 31.9182,31.70703 17.57174,104.01008 17.57174,104.01008 0,0 -1.64605,9.14862 12.02023,12.93885 13.66628,3.79024 36.52019,-20.9217 76.64766,12.63778 2.90888,2.26687 -10.76433,-24.356 -10.76433,-24.356 l 9.97141,-42.67088 24.26222,-54.98912 -0.78756,-52.26889 -7.46944,-25.41529 -25.48284,-9.59519 -33.77647,2.61031 -45.84231,6.09856 -33.63221,-12.65125 z"
     id="path1200" /><path
     style="enable-background:new 0 0 512 512;display:inline;fill:url(#linearGradient1257);stroke:#000000;stroke-width:1px;stroke-linecap:butt;stroke-linejoin:miter;stroke-opacity:0.00998452;fill-opacity:1"
     d="m 335.62944,239.21072 c 0,0 -4.98813,56.7486 24.16545,90.80559 11.82101,13.84481 17.13992,23.31917 17.13992,25.16499 0,1.84582 -15.94424,-44.14465 -6.08772,-32.31022 9.85651,11.83444 18.3433,5.79079 39.93291,59.60523 5.9616,11.53371 4.46736,2.31198 4.46736,2.31198 0,0 -8.89402,-46.66432 -19.00733,-69.92368 -4.70167,-11.77833 28.70397,-13.60664 42.25291,-0.67341 3.10883,1.90135 25.14597,7.4739 -3.22552,-41.62214 -13.38418,-20.2693 -30.0787,-14.57438 -30.0787,-14.57438 l -46.29853,3.34306 z"
     id="path1223" /><path
     style="display:inline;fill:url(#linearGradient1221);fill-opacity:1;stroke:#000000;stroke-width:1px;stroke-linecap:butt;stroke-linejoin:miter;stroke-opacity:0"
     d="m 380.1855,437.86883 c 0,0 25.94853,-42.00708 66.82671,8.50853 22.46003,21.84377 17.8796,-64.01498 17.8796,-64.01498 l 23.20647,-51.15026 -5.89996,-46.00105 -14.54578,-22.91423 -37.89644,-6.61901 -48.34961,7.40501 -0.73193,15.37914 c 0,0 53.86377,-19.01391 82.18163,7.7716 7.85088,10.60898 7.93993,63.77538 -6.73507,86.362 -14.675,22.58662 -25.06091,33.21968 -27.45968,36.09537 -2.39877,2.8757 -15.11741,15.42112 -60.12013,-69.25733 -2.41917,-3.61484 23.90298,30.919 11.90966,96.26011 -0.26985,1.72271 -0.26547,2.1751 -0.26547,2.1751 z"
     id="path1213"
     sodipodi:nodetypes="ccccccccccssccc" /></g>
<g
   id="g1278"
   inkscape:label="asaECima"
   style="display:inline"
   transform="matrix(-1,0,0,1,575.18061,0)"><path
     style="fill:url(#linearGradient1289);fill-opacity:1;stroke:#000000;stroke-width:1px;stroke-linecap:butt;stroke-linejoin:miter;stroke-opacity:0"
     d="m 540.88376,92.232316 -40.16723,-6.681378 -46.79492,13.50149 -39.98772,30.155502 -29.46967,30.60801 -21.33693,33.61337 -17.94024,32.79985 1.40825,32.56857 31.83105,2.8289 61.45139,-7.28467 51.40221,-6.98026 c 0,0 23.91054,-30.6999 24.65517,-32.57265 0.74463,-1.87276 3.13528,-35.71192 3.13528,-35.71192 L 527.33134,129.6837 542.026,94.198325 Z"
     id="path1262"
     inkscape:label="c5" /><path
     style="fill:url(#linearGradient1291);fill-opacity:1;stroke:#000000;stroke-width:1px;stroke-linecap:butt;stroke-linejoin:miter;stroke-opacity:0"
     d="m 449.22832,240.56595 c 0,0 -57.71223,-34.29166 0.51126,-55.38546 5.94062,-2.50771 23.10023,2.5743 52.224,-20.64406 1.91716,-2.40274 -37.8651,19.84487 -42.72045,11.70106 -4.85535,-8.14382 6.41132,-22.00259 8.3922,-24.19695 1.98088,-2.19436 -21.0711,-1.92318 -21.0711,-1.92318 l -44.1346,19.10853 -50.68683,41.81764 -5.16233,33.35418 16.66424,19.50258 69.85186,-6.55998 z"
     id="path1264"
     inkscape:label="c3" /><path
     style="fill:#1c9bd3;fill-opacity:1;stroke:#000000;stroke-width:1px;stroke-linecap:butt;stroke-linejoin:miter;stroke-opacity:0"
     d="m 349.60675,241.42987 c 0,0 35.38485,-55.39845 99.86898,-65.43175 18.53666,-2.43065 53.05189,-53.51529 42.56748,-80.853459 -6.17726,-12.184694 -69.09657,29.451329 -79.74515,39.050809 -10.64857,9.59947 -58.30675,60.62783 -58.30675,60.62783 l -9.12242,31.11473 z"
     id="path1266"
     inkscape:label="c1" /><path
     style="fill:#0068a1;fill-opacity:1;stroke:#000000;stroke-width:1px;stroke-linecap:butt;stroke-linejoin:miter;stroke-opacity:0"
     d="m 366.8076,253.19786 c 0,0 11.03142,-28.99255 49.10408,-37.95091 5.38923,-0.69875 -21.87503,-9.35598 -62.79804,29.29603 -3.68825,2.82114 -3.06707,-14.80194 -3.06707,-14.80194 l 4.78685,-17.68542 23.44885,-38.77592 14.0836,-16.05447 c 0,0 65.30499,-28.48277 97.30525,27.73949 7.83655,15.66479 7.07722,-46.78481 -81.19583,-48.7895 -10.61383,2.13556 -32.92144,27.69629 -32.92144,27.69629 l -21.20097,37.14173 -10.86078,32.21966 1.55845,22.95412 22.02756,1.73306 z"
     id="path1268"
     inkscape:label="c4" /><path
     style="fill:#0068a1;fill-opacity:1;stroke:#0068a1;stroke-width:1px;stroke-linecap:butt;stroke-linejoin:miter;stroke-opacity:0.019207"
     d="m 350.82713,250.31011 c 0,0 66.43483,6.18686 96.12036,-40.7209 7.11338,-13.21209 25.61517,-42.06466 21.26427,35.2753 -3.58387,14.16981 -24.53778,9.02765 -24.53778,9.02765 l -47.31566,6.15987 -24.11097,2.58533 -25.39331,-8.08121 z"
     id="path1270"
     inkscape:label="c2" /><path
     style="enable-background:new 0 0 512 512;fill:url(#linearGradient1311);fill-opacity:1;stroke:#000000;stroke-width:1px;stroke-linecap:butt;stroke-linejoin:miter;stroke-opacity:0"
     d="m 235.5419,279.04172 c 0,0 -7.75218,66.44298 -3.38104,87.99318 1.67734,12.71685 11.92559,39.97183 -16.35222,48.98098 -7.34983,1.77935 -16.08425,8.63889 -30.95953,27.15167 -3.66213,4.27865 -35.2655,-2.21379 -35.2655,-2.21379 0,0 -9.35639,-95.73316 -8.82041,-97.25832 0.53599,-1.52517 36.49673,-64.34373 36.49673,-64.34373 l 46.29604,-24.40346 8.79072,16.2859 z"
     id="path1309"
     transform="matrix(-1,0,0,1,575.18061,0)" /><path
     style="display:inline;fill:url(#linearGradient1293);fill-opacity:1;stroke:#000000;stroke-width:1px;stroke-linecap:butt;stroke-linejoin:miter;stroke-opacity:0"
     d="m 336.72167,241.29717 c 0,0 -5.96493,60.01338 25.95327,91.7204 31.9182,31.70703 17.57174,104.01008 17.57174,104.01008 0,0 -1.64605,9.14862 12.02023,12.93885 13.66628,3.79024 36.52019,-20.9217 76.64766,12.63778 2.90888,2.26687 -10.76433,-24.356 -10.76433,-24.356 l 9.97141,-42.67088 24.26222,-54.98912 -0.78756,-52.26889 -7.46944,-25.41529 -25.48284,-9.59519 -33.77647,2.61031 -45.84231,6.09856 -33.63221,-12.65125 z"
     id="path1272" /><path
     style="display:inline;fill:url(#linearGradient1295);fill-opacity:1;stroke:#000000;stroke-width:1px;stroke-linecap:butt;stroke-linejoin:miter;stroke-opacity:0.00998451"
     d="m 335.62944,239.21072 c 0,0 -4.98813,56.7486 24.16545,90.80559 11.82101,13.84481 17.13992,23.31917 17.13992,25.16499 0,1.84582 -15.94424,-44.14465 -6.08772,-32.31022 9.85651,11.83444 18.3433,5.79079 39.93291,59.60523 5.9616,11.53371 4.46736,2.31198 4.46736,2.31198 0,0 -8.89402,-46.66432 -19.00733,-69.92368 -4.70167,-11.77833 28.70397,-13.60664 42.25291,-0.67341 3.10883,1.90135 25.14597,7.4739 -3.22552,-41.62214 -13.38418,-20.2693 -30.0787,-14.57438 -30.0787,-14.57438 l -46.29853,3.34306 z"
     id="path1274" /><path
     style="display:inline;fill:url(#linearGradient1297);fill-opacity:1;stroke:#000000;stroke-width:1px;stroke-linecap:butt;stroke-linejoin:miter;stroke-opacity:0"
     d="m 380.1855,437.86883 c 0,0 25.94853,-42.00708 66.82671,8.50853 22.46003,21.84377 17.8796,-64.01498 17.8796,-64.01498 l 23.20647,-51.15026 -5.89996,-46.00105 -14.54578,-22.91423 -37.89644,-6.61901 -48.34961,7.40501 -0.73193,15.37914 c 0,0 53.86377,-19.01391 82.18163,7.7716 7.85088,10.60898 7.93993,63.77538 -6.73507,86.362 -14.675,22.58662 -25.06091,33.21968 -27.45968,36.09537 -2.39877,2.8757 -15.11741,15.42112 -60.12013,-69.25733 -2.41917,-3.61484 23.90298,30.919 11.90966,96.26011 -0.26985,1.72271 -0.26547,2.1751 -0.26547,2.1751 z"
     id="path1276"
     sodipodi:nodetypes="ccccccccccssccc" /></g><path
   style="display:inline;fill:#1b1d22;fill-opacity:1;stroke:#000000;stroke-width:1px;stroke-linecap:butt;stroke-linejoin:miter;stroke-opacity:0.00257939"
   d="m 312.07133,212.81353 c 0,0 -8.41524,-38.65341 -18.48617,-39.03692 -10.07092,-0.38352 -11.0226,6.59524 -11.0226,6.59524 0,0 -3.45281,46.20662 -31.57032,70.48488 -10.26814,7.0581 -1.66328,23.27103 20.49576,1.3064 16.9172,-16.91162 18.02815,-19.44356 18.02815,-19.44356 0,0 21.38092,126.09784 -11.55137,180.96589 -12.96207,15.98715 3.93966,13.03039 3.93966,13.03039 0,0 20.35622,-6.08777 25.73799,-10.47353 5.38177,-4.38576 5.78365,-8.13731 6.51336,-11.97077 0.7297,-3.83345 20.70408,-88.32993 -2.08446,-191.45802 z"
   id="path9956"
   inkscape:label="1" /><g
   id="g1401"
   inkscape:label="contornoDireitoDark"
   style="display:inline"><path
     style="display:inline;fill:#282a36;fill-opacity:1;stroke:#1b1d22;stroke-width:1px;stroke-linecap:butt;stroke-linejoin:miter;stroke-opacity:0"
     d="m 524.20755,94.86551 c 0,0 -27.48662,37.88192 -15.84159,84.43121 2.30109,11.24623 9.87714,35.46154 -18.11943,54.85672 -2.57546,0.14754 7.0064,17.43895 7.0064,17.43895 0,0 48.67252,5.30918 46.80298,-37.25037 -0.0458,-19.46312 3.61574,-61.28118 19.76506,-93.98842 3.30544,-8.53971 -35.76165,-27.784679 -35.76165,-27.784679 z"
     id="path1395"
     sodipodi:nodetypes="cccccccc"
     inkscape:label="wingDTampa" /><path
     style="display:inline;fill:url(#linearGradient8005);fill-opacity:1;stroke:#000000;stroke-width:1px;stroke-linecap:butt;stroke-linejoin:miter;stroke-dasharray:4, 1;stroke-dashoffset:0;stroke-opacity:0"
     d="m 335.57776,233.32783 c 0,0 -7.07571,56.56837 46.44707,45.2784 53.52277,-11.28997 92.90304,-34.38129 96.09557,24.13149 3.19253,58.51278 19.51971,59.58395 -8.70255,86.66473 -28.22225,27.08077 7.54435,70.49845 49.89227,-61.68814 -0.87974,-8.32878 -25.98156,-48.86449 5.45349,-67.34623 7.20991,-6.08678 4.79517,-49.6399 -126.97203,-9.44824 -16.87551,6.20766 -95.33753,12.18094 1.79217,-97.29209 12.1691,-11.47145 113.28667,-102.992235 163.62027,-33.75379 1.47778,2.3182 46.63629,-84.032312 -61.40443,-55.552191 -27.74159,8.714711 -121.9208,54.623461 -166.13748,168.515641 -0.0858,0.35343 -0.0843,0.49042 -0.0843,0.49042 z"
     id="path1397"
     sodipodi:nodetypes="cssscccccccc"
     inkscape:label="wingDContorno" /><path
     style="display:inline;fill:url(#linearGradient1393);fill-opacity:1;stroke:#000000;stroke-width:1px;stroke-linecap:butt;stroke-linejoin:miter;stroke-opacity:0"
     d="m 478.70984,311.94109 c 0,0 0.0137,30.8347 -7.868,50.9368 -7.88173,20.1021 -26.52913,45.47991 -25.50301,68.89987 -0.0941,8.49187 8.09157,33.05883 37.77411,46.32429 3.64239,0.92382 5.80698,2.12028 6.66765,5.22924 0.86066,3.10896 2.23647,4.66196 4.57014,5.45346 2.33366,0.79151 6.01943,1.39018 7.34366,-0.19827 1.32424,-1.58845 2.62748,-3.49485 1.81027,-6.44488 -0.81722,-2.95004 -5.11941,-6.56599 -12.49281,-6.93421 -3.17597,-0.78194 -15.35676,-9.35846 -22.9594,-25.7371 -0.70745,-8.9715 -3.26954,-14.72887 7.29581,-29.30631 3.3612,-3.84642 16.91088,-26.0925 26.92428,-46.29593 12.21416,-22.29114 4.41403,-42.81763 4.41403,-42.81763 l -17.43625,-28.03345 z"
     id="path1399"
     inkscape:label="wingDPe"
     sodipodi:nodetypes="csccssssccccccc" /></g><g
   id="g1415"
   inkscape:label="contornoEsquerdoDark"
   transform="matrix(-1,0,0,1,575.07642,0)"
   style="display:inline"><path
     style="display:inline;fill:#282a36;fill-opacity:1;stroke:#1b1d22;stroke-width:1px;stroke-linecap:butt;stroke-linejoin:miter;stroke-opacity:0"
     d="m 524.20755,94.86551 c 0,0 -27.48662,37.88192 -15.84159,84.43121 2.30109,11.24623 9.87714,35.46154 -18.11943,54.85672 -2.57546,0.14754 7.0064,17.43895 7.0064,17.43895 0,0 48.67252,5.30918 46.80298,-37.25037 -0.0458,-19.46312 3.61574,-61.28118 19.76506,-93.98842 3.30544,-8.53971 -35.76165,-27.784679 -35.76165,-27.784679 z"
     id="path1409"
     sodipodi:nodetypes="cccccccc"
     inkscape:label="wingDTampa" /><path
     style="display:inline;fill:url(#linearGradient1079);fill-opacity:1;stroke:#000000;stroke-width:1px;stroke-linecap:butt;stroke-linejoin:miter;stroke-dasharray:4, 1;stroke-dashoffset:0;stroke-opacity:0"
     d="m 335.57776,233.32783 c 0,0 -7.07571,56.56837 46.44707,45.2784 53.52277,-11.28997 92.90304,-34.38129 96.09557,24.13149 3.19253,58.51278 19.51971,59.58395 -8.70255,86.66473 -28.22225,27.08077 7.54435,70.49845 49.89227,-61.68814 -0.87974,-8.32878 -25.98156,-48.86449 5.45349,-67.34623 7.20991,-6.08678 4.79517,-49.6399 -126.97203,-9.44824 -16.87551,6.20766 -95.33753,12.18094 1.79217,-97.29209 12.1691,-11.47145 113.28667,-102.992235 163.62027,-33.75379 1.47778,2.3182 46.63629,-84.032312 -61.40443,-55.552191 -27.74159,8.714711 -121.9208,54.623461 -166.13748,168.515641 -0.0858,0.35343 -0.0843,0.49042 -0.0843,0.49042 z"
     id="path1411"
     sodipodi:nodetypes="cssscccccccc"
     inkscape:label="wingDContorno" /><path
     style="display:inline;fill:url(#linearGradient1423);fill-opacity:1;stroke:#000000;stroke-width:1px;stroke-linecap:butt;stroke-linejoin:miter;stroke-opacity:0"
     d="m 478.70984,311.94109 c 0,0 0.0137,30.8347 -7.868,50.9368 -7.88173,20.1021 -26.52913,45.47991 -25.50301,68.89987 -0.0941,8.49187 8.09157,33.05883 37.77411,46.32429 3.64239,0.92382 5.80698,2.12028 6.66765,5.22924 0.86066,3.10896 2.23647,4.66196 4.57014,5.45346 2.33366,0.79151 6.01943,1.39018 7.34366,-0.19827 1.32424,-1.58845 2.62748,-3.49485 1.81027,-6.44488 -0.81722,-2.95004 -5.11941,-6.56599 -12.49281,-6.93421 -3.17597,-0.78194 -15.35676,-9.35846 -22.9594,-25.7371 -0.70745,-8.9715 -3.26954,-14.72887 7.29581,-29.30631 3.3612,-3.84642 16.91088,-26.0925 26.92428,-46.29593 12.21416,-22.29114 4.41403,-42.81763 4.41403,-42.81763 l -17.43625,-28.03345 z"
     id="path1413"
     inkscape:label="wingDPe"
     sodipodi:nodetypes="csccssssccccccc" /></g></svg>
