<?xml version="1.0" encoding="UTF-8" standalone="no"?>
<!-- Generator: Adobe Illustrator 19.0.0, SVG Export Plug-In . SVG Version: 6.00 Build 0)  -->

<svg
   version="1.1"
   id="Layer_1"
   x="0px"
   y="0px"
   viewBox="0 0 612 512"
   style="enable-background:new 0 0 512 512;"
   xml:space="preserve"
   sodipodi:docname="butterfly14 sd.svg"
   inkscape:version="1.2 (1:1.2+202206011326+fc4e4096c5)"
   xmlns:inkscape="http://www.inkscape.org/namespaces/inkscape"
   xmlns:sodipodi="http://sodipodi.sourceforge.net/DTD/sodipodi-0.dtd"
   xmlns="http://www.w3.org/2000/svg"
   xmlns:svg="http://www.w3.org/2000/svg"><defs
   id="defs228" /><sodipodi:namedview
   id="namedview226"
   pagecolor="#505050"
   bordercolor="#eeeeee"
   borderopacity="1"
   inkscape:showpageshadow="0"
   inkscape:pageopacity="0"
   inkscape:pagecheckerboard="0"
   inkscape:deskcolor="#505050"
   showgrid="false"
   inkscape:zoom="0.921875"
   inkscape:cx="169.22034"
   inkscape:cy="320.54237"
   inkscape:window-width="1600"
   inkscape:window-height="966"
   inkscape:window-x="0"
   inkscape:window-y="28"
   inkscape:window-maximized="1"
   inkscape:current-layer="Layer_1" />
<path
   style="fill:#6eb4f0"
   d="m 423.37612,246.03807 c 0,0 79.451,35.311 88.278,70.623 8.828,35.311 -26.483,74.485 -26.483,74.485 -4.966,30.346 -26.483,40.277 -26.483,40.277 -9.564,23.909 -35.311,17.656 -35.311,17.656 -17.656,8.828 -32.529,-1.692 -44.139,-17.656 -14.713,-20.23 -24.758,-11.156 -36.231,-27.22 -9.196,-12.874 6.04594,-50.4834 -2.19051,-78.54147 l -3.00336,-77.11629 z"
   id="path163"
   sodipodi:nodetypes="cccccccscc" />
<path
   style="fill:#78c8ff"
   d="m 335.09812,246.03807 h 88.278 c 0,0 79.451,35.311 88.278,70.623 8.828,35.311 -26.483,74.485 -26.483,74.485 0,0 -97.106,-39.174 -150.073,-145.108 z"
   id="path165" />
<path
   style="fill:#6b829b"
   d="m 343.00512,404.20307 c -9.195,-12.874 12.65252,-53.83019 2.59524,-81.28826 l -2.82841,-73.17093 -7.67383,-3.70581 c 1.103,72.278 44.139,185.384 44.139,185.384 -14.714,-20.231 -24.758,-11.157 -36.232,-27.219 z"
   id="path167"
   sodipodi:nodetypes="cscccc" />
<path
   style="fill:#6eb4f0"
   d="m 545.00912,60.653067 c 17.529,0 28.425,8.437 28.425,26.482 0,8.829 -3.581,20.935003 -10.769,35.312003 -26.483,52.967 -8.828,114.762 -35.311,132.417 -26.483,17.656 -192.257,-8.828 -192.257,-8.828 v -17.656 c 10e-4,0.002 68.392,-167.727003 209.912,-167.727003 z"
   id="path169" />
<path
   style="fill:#5f9beb"
   d="m 545.00912,60.653067 c 17.529,0 28.425,8.437 28.425,26.482 0,3.184 -0.631,6.928 -1.564,10.916 -50.636,38.061003 -145.786,105.526003 -236.772,147.986003 v -17.656 c 0,0.001 68.391,-167.728003 209.911,-167.728003 z"
   id="path171" />
<path
   style="fill:#1b1d22;fill-opacity:1"
   d="m 493.99912,95.965067 c -85.26,21.315003 -133.215,103.271003 -154.401,150.771003 -2.877,-0.439 -4.5,-0.697 -4.5,-0.697 v -17.656 c 0,0 68.391,-167.729003 209.913,-167.729003 17.529,0 28.424,8.437 28.424,26.482 0,8.71 -3.518,20.631003 -10.514,34.754003 -15.198,-23.973003 -42.043,-32.645003 -68.922,-25.925003 z"
   id="path173" />
<path
   style="fill:#6eb4f0"
   d="m 150.059,245.567 c 0,0 -79.451,35.311 -88.278,70.623 -8.827,35.312 26.483,74.485 26.483,74.485 4.966,30.346 26.483,40.277 26.483,40.277 9.564,23.909 35.311,17.656 35.311,17.656 17.656,8.828 32.529,-1.692 44.139,-17.656 14.713,-20.23 24.758,-11.156 36.231,-27.22 9.195,-12.873 -7.85333,-59.10901 1.4941,-86.81677 l 6.33284,-70.36397 z"
   id="path175"
   sodipodi:nodetypes="cscccccscc" />
<path
   style="fill:#78C8FF;"
   d="M238.337,245.567h-88.278c0,0-79.451,35.311-88.278,70.623s26.483,74.485,26.483,74.485  S185.37,351.501,238.337,245.567z"
   id="path177" />
<path
   style="fill:#6b829b"
   d="m 230.429,403.732 c 9.195,-12.873 -14.14451,-60.82296 -9.28076,-83.34811 l 15.31201,-70.91341 1.87675,-3.90348 c -1.103,72.278 -44.139,185.384 -44.139,185.384 14.713,-20.231 24.758,-11.157 36.231,-27.219 z"
   id="path179"
   sodipodi:nodetypes="cscccc" />
<path
   style="fill:#908490;fill-opacity:0"
   d="M255.993,214.669c-2.103,0-3.914-1.483-4.328-3.552c-8.466-42.337-33.846-68.106-34.104-68.364  c-1.725-1.724-1.725-4.518,0-6.241c1.725-1.724,4.518-1.725,6.241,0c0.974,0.974,21.052,21.362,32.191,56.183  c11.139-34.82,31.216-55.208,32.191-56.183c1.725-1.725,4.509-1.725,6.232,0c1.725,1.716,1.732,4.509,0.009,6.241  c-0.25,0.251-25.665,26.165-34.104,68.364C259.907,213.186,258.096,214.669,255.993,214.669z"
   id="path181" />
<path
   style="fill:#6EB4F0;"
   d="M28.425,60.182C10.897,60.182,0,68.62,0,86.664c0,8.829,3.581,20.935,10.769,35.312  c26.483,52.967,8.828,114.762,35.311,132.417s192.257-8.828,192.257-8.828V227.91C238.337,227.911,169.946,60.182,28.425,60.182z"
   id="path183" />
<path
   style="fill:#5F9BEB;"
   d="M28.425,60.182C10.897,60.182,0,68.62,0,86.664c0,3.184,0.631,6.928,1.564,10.916  c50.638,38.062,145.787,105.527,236.774,147.986V227.91C238.337,227.911,169.946,60.182,28.425,60.182z"
   id="path185" />
<g
   id="g191">
	<path
   style="fill:#1b1d22;fill-opacity:1"
   d="M79.436,95.494c85.26,21.315,133.215,103.271,154.401,150.771c2.877-0.439,4.5-0.697,4.5-0.697   v-17.656c0,0-68.391-167.729-209.912-167.729C10.897,60.182,0,68.62,0,86.664c0,8.71,3.518,20.631,10.514,34.754   C25.712,97.446,52.557,88.774,79.436,95.494z"
   id="path187" />
	<path
   style="fill:#5a464b;fill-opacity:0"
   d="M255.993,280.878L255.993,280.878c-9.751,0-17.656-7.904-17.656-17.656v-35.311   c0-9.751,7.904-17.656,17.656-17.656l0,0c9.751,0,17.656,7.904,17.656,17.656v35.311   C273.648,272.973,265.743,280.878,255.993,280.878z"
   id="path189" />
</g>
<path
   style="fill:#463246;fill-opacity:0"
   d="M255.993,227.911L255.993,227.911c-4.875,0-8.828-3.953-8.828-8.828v-8.828  c0-4.875,3.953-8.828,8.828-8.828l0,0c4.875,0,8.828,3.953,8.828,8.828v8.828C264.821,223.959,260.868,227.911,255.993,227.911z"
   id="path193" />
<g
   id="g195">
</g>
<g
   id="g197">
</g>
<g
   id="g199">
</g>
<g
   id="g201">
</g>
<g
   id="g203">
</g>
<g
   id="g205">
</g>
<g
   id="g207">
</g>
<g
   id="g209">
</g>
<g
   id="g211">
</g>
<g
   id="g213">
</g>
<g
   id="g215">
</g>
<g
   id="g217">
</g>
<g
   id="g219">
</g>
<g
   id="g221">
</g>
<g
   id="g223">
</g>
<path
   style="fill:#1b1d22;fill-opacity:1;stroke:#000000;stroke-width:1px;stroke-linecap:butt;stroke-linejoin:miter;stroke-opacity:1"
   d="m 335.66125,249.81414 c 9.32144,33.70759 49.48736,30.2783 49.48736,30.2783 0,0 61.66638,-32.53012 83.49755,-10.23828 21.83117,22.29185 14.52085,114.93121 -25.37871,161.57508 -39.89956,46.64387 5.88506,16.63235 5.88506,16.63235 l 30.92618,-34.8366 20.50152,-40.6783 20.56628,-46.53542 c 0,0 -20.16892,-53.42786 -0.1591,-62.81522 20.00983,-9.38736 -2.27255,-27.73885 -41.47859,-27.15132 -39.20605,0.58754 -76.82419,15.12491 -89.86172,19.13515 -13.03753,4.01023 -48.02896,3.94878 -49.75599,-14.60671 -1.72703,-18.55549 1.35992,-18.55549 0,-18.55549 -1.35992,0 -2.89832,19.64201 -2.89832,19.64201 z"
   id="path394" /><path
   style="fill:#1b1d22;fill-opacity:1;stroke:#000000;stroke-width:1.00653px;stroke-linecap:butt;stroke-linejoin:miter;stroke-opacity:1"
   d="m 239.01576,249.33679 c -9.44373,33.70738 -50.13661,30.27811 -50.13661,30.27811 0,0 -62.47542,-32.52992 -84.59299,-10.23821 -22.117575,22.29171 -14.711358,114.9305 25.71166,161.57409 40.42302,46.64359 -5.96225,16.63225 -5.96225,16.63225 L 92.703647,412.74664 71.933142,372.06859 51.097045,325.53346 c 0,0 20.43352,-53.42754 0.161197,-62.81484 -20.272345,-9.3873 2.302358,-27.73869 42.022766,-27.15115 39.720432,0.58753 77.832082,15.12482 91.040672,19.13503 13.20856,4.0102 48.65905,3.94876 50.40875,-14.60663 1.74968,-18.55537 -1.37776,-18.55537 0,-18.55537 1.37775,0 2.93634,19.64189 2.93634,19.64189 z"
   id="path5864" /></svg>
